<?xml version="1.0" encoding="utf-8"?>
<!-- Generator: Adobe Illustrator 25.4.1, SVG Export Plug-In . SVG Version: 6.00 Build 0)  -->
<svg version="1.1" id="Layer_1" xmlns="http://www.w3.org/2000/svg" xmlns:xlink="http://www.w3.org/1999/xlink" x="0px" y="0px"
	 viewBox="0 0 4000 4000" style="enable-background:new 0 0 4000 4000;" xml:space="preserve">
<style type="text/css">
	.st0{fill:#FFFFFF;}
	.st1{fill:#053C48;}
</style>
<g>
	<path class="st0" d="M2000,338.59c-656.32,0-1188.31,532-1188.31,1188.31c0,511.08,325.63,965,810.54,1127.38l79.72,26.7v191.59
		c0,21.25,17.66,39.12,38.89,39.4h517.83c21.44,0,39.39-17.96,39.39-39.4v-191.59l79.72-26.7
		c484.91-162.38,810.54-616.29,810.54-1127.38C3188.31,870.58,2656.32,338.59,2000,338.59z"/>
	<path class="st1" d="M2409.4,3168.63h-818.78c-63.31,0-114.63,51.33-114.63,114.63c0,63.31,51.33,114.63,114.63,114.63h818.78
		c63.31,0,114.63-51.32,114.63-114.63C2524.03,3219.96,2472.71,3168.63,2409.4,3168.63z"/>
	<path d="M2000,131.18c-771.74,0-1397.4,625.65-1397.4,1397.39c0,569.85,347.13,1083.09,875.13,1296.05l-1.76,180.12
		c0,63.31,51.33,114.63,114.63,114.63h818.78c63.31,0,114.63-51.32,114.63-114.63l-1.77-180.12
		c527.99-212.96,875.13-726.2,875.13-1296.05C3397.39,756.83,2771.74,131.18,2000,131.18z M2371.36,2636.8l-78.37,26.24v188.34
		c0,21.08-17.65,38.73-38.73,38.73h-509.04c-20.87-0.28-38.23-17.84-38.23-38.73v-188.34l-78.36-26.24
		c-476.67-159.63-796.77-605.83-796.77-1108.23c0-645.17,522.96-1168.13,1168.13-1168.13c645.17,0,1168.13,522.96,1168.13,1168.13
		C3168.13,2030.98,2848.03,2477.17,2371.36,2636.8z"/>
	<path class="st1" d="M2409.4,3447.14h-818.78c-63.31,0-114.63,51.33-114.63,114.63c0,63.31,51.33,114.63,114.63,114.63h124.48
		c45.42,112.79,155.86,192.41,284.91,192.41c129.05,0,239.48-79.62,284.9-192.41h124.49c63.31,0,114.63-51.32,114.63-114.63
		C2524.03,3498.47,2472.71,3447.14,2409.4,3447.14z"/>
	<path d="M2779.83,1923.39c-38.33-23.67-88.6-11.79-112.26,26.54c-59.33,96.17-139.41,178.55-233.66,240.84
		c-37.61,24.9-47.93,75.6-23.02,113.22c24.91,37.61,75.6,47.93,113.22,23.02c114.03-75.34,210.52-175.06,282.28-291.36
		C2830.04,1997.32,2818.16,1947.05,2779.83,1923.39z"/>
	<path d="M2610.35,824.74c-34.62-28.97-86.18-24.39-115.14,10.23c-28.97,34.62-24.39,86.18,10.23,115.14
		c237.86,199.72,332.33,520.72,244.85,814.94c-12.71,43.27,12.06,88.67,55.33,101.38c43.27,12.71,88.67-12.06,101.38-55.33
		C3012.97,1454.58,2898.71,1066.88,2610.35,824.74z"/>
	<path d="M2409.4,3168.63h-818.78c-63.31,0-114.63,51.33-114.63,114.63c0,63.31,51.33,114.63,114.63,114.63h818.78
		c63.31,0,114.63-51.32,114.63-114.63C2524.03,3219.96,2472.71,3168.63,2409.4,3168.63z"/>
	<path d="M2409.4,3447.14h-818.78c-63.31,0-114.63,51.33-114.63,114.63c0,63.31,51.33,114.63,114.63,114.63h124.48
		c45.42,112.79,155.86,192.41,284.91,192.41c129.05,0,239.48-79.62,284.9-192.41h124.49c63.31,0,114.63-51.32,114.63-114.63
		C2524.03,3498.47,2472.71,3447.14,2409.4,3447.14z"/>
</g>
</svg>
