<?xml version="1.0" encoding="utf-8"?>
<!-- Generator: Adobe Illustrator 25.4.1, SVG Export Plug-In . SVG Version: 6.00 Build 0)  -->
<svg version="1.1" id="Layer_1" xmlns="http://www.w3.org/2000/svg" xmlns:xlink="http://www.w3.org/1999/xlink" x="0px" y="0px"
	 viewBox="0 0 4000 4000" style="enable-background:new 0 0 4000 4000;" xml:space="preserve">
<style type="text/css">
	.st0{fill:#FFFFFF;}
	.st1{fill:#FDFFFF;}
</style>
<g>
	<path class="st0" d="M1099.43,2326.13c-28.84-0.11-138.5,161.96-156.8,198.08c-40.41,79.81,4.88,109.93,80.26,133.37
		c5.45-23.79,113.74-176.01,129.46-190.94C1180.79,2406.42,1186.09,2326.44,1099.43,2326.13z"/>
	<path class="st0" d="M1365.54,2565.61c-85.28,8.2-215.32,187.74-198.2,235.38c20.86,58.08,84.56,68.2,138.49,58.36
		C1330.8,2823.32,1525.3,2550.27,1365.54,2565.61z"/>
	<path class="st0" d="M1658.52,2786.94c-93.95,6.71-152.05,110.38-202.13,182.76c4.7,56.63,45.21,102.65,103.33,106.86
		C1585.62,3046.67,1827.06,2774.91,1658.52,2786.94z"/>
	<path class="st0" d="M2086.73,3227.94c37.14,7.04,68.01-11.56,92.71-37.97c-29.22-17.71-62.36-40.96-96.99-71.13
		C2090.48,3129.04,2121.33,3169.77,2086.73,3227.94z"/>
	<path class="st0" d="M1824.21,3040.31c-7.69,21.78-88.65,116.88-107,138.87c31.01,53.23,53.52,72.64,71.11,69.88
		c38.4-6,120.73-133.96,110.41-176.55C1894.12,3053.52,1826.7,3033.34,1824.21,3040.31z"/>
	<path class="st1" d="M3063.05,772.42c-8.33-14.43-27.99-19.9-42.55-11.72l-305.6,176.65c-14.43,8.33-19.9,27.99-11.72,42.55
		l695.71,1204.64c8.33,14.44,28,19.9,42.55,11.72l305.6-176.65c14.44-8.34,19.91-27.99,11.72-42.55L3063.05,772.42z"/>
	<path class="st1" d="M1285.1,930.36L979.5,753.72c-14.56-8.18-34.22-2.71-42.55,11.72L241.24,1970.08
		c-8.19,14.56-2.72,34.22,11.72,42.55l305.68,176.49l-0.09,0.16c7.18,4.04,15.66,4.75,23.59,2.63c7.79-2.09,14.74-7.04,18.96-14.35
		l695.71-1204.64C1305,958.36,1299.52,938.7,1285.1,930.36z"/>
	<path class="st0" d="M2209.64,1764.43l-267,37.39c-123.34,301.59-356.46,404.25-663.86,295.49
		c-52.51-18.57-84.64-68.47-63.07-124.29l205.94-533.66c6.61-17.14,18.32-32.5,34.67-43.58l87.47-59.2l-169.8-123.87l-538.18,932.16
		l77.39,85.54c118.15-180.78,437.06-79.44,444.88,148.49c144.83-9.51,255.31,78.98,251.45,225.96
		c180.03-32.61,326.96,79.76,284.98,264.78c7.14,1.22,14.26,2.7,21.33,4.46c13.26-84.12,125.06-108.71,171.3-35.27
		c101.12,159.67,213.44,208.8,243.8,219.67c41.62-0.48,67.93-47.91,81.92-81.45c-127.75-79.61-227.63-154.08-330.84-265.26
		c-83.75-90,53.1-217.36,136.86-127.35c102.78,110.7,200.62,177.69,328.63,255.77c27.54-1.99,68.23-6.14,92.58-19.58
		c-162.4-84.07-288.77-223.03-396.44-368.03c-73.16-98.67,76.87-209.91,150.03-111.24c104.04,140.11,230.43,281.24,398.62,342.3
		c72.7,18.38,146.49-83.38,126.53-162.8C2586.24,2332.68,2404.24,2065.43,2209.64,1764.43z"/>
	<path class="st0" d="M2033.78,1230.16l-448.49,303.58l-158.63,411.3c201.11,39.29,297.89-78.06,359.4-258.08
		c12.08-35.64,43.56-59.23,78.68-62.98l378.27-52.96c43.24-5.97,74.03,15.03,96.14,49.3c183.86,285,348.61,540.32,632.49,715.01
		l171.69-219.6l-519.94-900.56L2033.78,1230.16z"/>
	<path d="M3224.79,678.74c-60.08-104.06-193.48-139.67-297.51-79.63L2621.23,775.6c-88.78,51.26-129.8,158.11-98.36,255.38
		l-520.84,13.24c-19.92,0.47-38.23,7.15-53.13,18.13l-240.97,163.11l-240.95-175.76c48.04-102.15,9.68-224.57-88.21-281.08
		l-306.05-176.49c-104.03-60.04-237.43-24.43-297.51,79.63L79.66,1876.86c-60.08,104.09-24.48,237.39,79.63,297.51l306.05,176.49
		c87.73,50.63,198.76,34.08,267.81-39.58l73.75,77.72c-147.79,206.52-42.59,389.5,177.49,451.87
		c38.35,138.48,157.88,212.4,297.82,208.47c35.51,120.46,142.77,206.54,268.41,213.93c103.13,176.24,241.76,230.19,398.41,106.96
		c162.57,101.72,332.31,25.99,422.78-127.7c114.47-18.53,186.28-116.4,223.29-219.18c102.22-12.1,198.94-52.86,241.22-153.98
		c186.35-24.9,310.72-212.58,263.64-395.13l144.3-184.57c30.27,45.7,75.47,76.63,125.29,89.98c53.65,14.37,113.02,8.26,165.11-21.81
		l306.05-176.49c104.11-60.11,139.71-193.42,79.63-297.51L3224.79,678.74z M601.11,2177.56c-4.22,7.3-11.17,12.26-18.96,14.35
		c-7.92,2.12-16.41,1.41-23.59-2.63l0.09-0.16l-305.68-176.49c-14.44-8.33-19.91-27.99-11.72-42.55L936.95,765.44
		c8.33-14.44,27.99-19.91,42.55-11.72l305.59,176.65c14.43,8.33,19.9,28,11.72,42.55L601.11,2177.56z M1022.89,2657.58
		c-75.37-23.44-120.67-53.56-80.26-133.37c18.3-36.11,127.95-198.18,156.8-198.08c86.66,0.3,81.36,80.29,52.92,140.5
		C1136.62,2481.57,1028.33,2633.79,1022.89,2657.58z M1305.84,2859.35c-53.94,9.84-117.63-0.28-138.49-58.36
		c-17.12-47.64,112.92-227.18,198.2-235.38C1525.3,2550.27,1330.8,2823.32,1305.84,2859.35z M1559.71,3076.57
		c-58.11-4.21-98.62-50.23-103.33-106.86c50.09-72.39,108.18-176.05,202.13-182.76C1827.06,2774.91,1585.62,3046.67,1559.71,3076.57
		z M1788.32,3249.07c-17.59,2.76-40.1-16.65-71.11-69.88c18.36-22,99.31-117.09,107-138.87c2.49-6.97,69.91,13.21,74.52,32.2
		C1909.06,3115.11,1826.72,3243.07,1788.32,3249.07z M2086.73,3227.94c34.6-58.17,3.75-98.9-4.28-109.1
		c34.63,30.17,67.78,53.42,96.99,71.13C2154.75,3216.38,2123.87,3234.98,2086.73,3227.94z M2792.29,2683.69
		c-168.19-61.07-294.58-202.19-398.62-342.3c-73.16-98.67-223.19,12.57-150.03,111.24c107.67,145,234.04,283.96,396.44,368.03
		c-24.35,13.44-65.04,17.59-92.58,19.58c-128.01-78.08-225.86-145.07-328.63-255.77c-83.76-90.01-220.61,37.35-136.86,127.35
		c103.22,111.18,203.1,185.65,330.84,265.26c-13.99,33.53-40.3,80.96-81.92,81.45c-30.36-10.88-142.68-60-243.8-219.67
		c-46.24-73.44-158.03-48.85-171.3,35.27c-7.06-1.76-14.19-3.24-21.33-4.46c41.97-185.02-104.95-297.4-284.98-264.78
		c3.86-146.98-106.62-235.47-251.45-225.96c-7.82-227.93-326.73-329.27-444.88-148.49l-77.39-85.54l538.18-932.16l169.8,123.87
		l-87.47,59.2c-16.35,11.08-28.06,26.45-34.67,43.58l-205.94,533.66c-21.57,55.81,10.56,105.72,63.07,124.29
		c307.4,108.76,540.52,6.1,663.86-295.49l267-37.39c194.61,300.99,376.6,568.24,709.18,756.45
		C2938.78,2600.31,2864.99,2702.07,2792.29,2683.69z M2971.64,2335.32c-283.88-174.68-448.63-430-632.49-715.01
		c-22.1-34.27-52.9-55.27-96.14-49.3l-378.27,52.96c-35.12,3.75-66.6,27.34-78.68,62.98c-61.51,180.02-158.29,297.37-359.4,258.08
		l158.63-411.3l448.49-303.58l589.61-15l519.94,900.56L2971.64,2335.32z M3747.03,2019.61l-305.6,176.65
		c-14.55,8.18-34.22,2.71-42.55-11.72L2703.18,979.9c-8.18-14.56-2.71-34.22,11.72-42.55l305.6-176.65
		c14.56-8.18,34.22-2.71,42.55,11.72l695.71,1204.64C3766.94,1991.62,3761.47,2011.27,3747.03,2019.61z"/>
</g>
</svg>
