<?xml version="1.0" encoding="utf-8"?>
<!-- Generator: Adobe Illustrator 25.4.1, SVG Export Plug-In . SVG Version: 6.00 Build 0)  -->
<svg version="1.1" id="Layer_1" xmlns="http://www.w3.org/2000/svg" xmlns:xlink="http://www.w3.org/1999/xlink" x="0px" y="0px"
	 viewBox="0 0 4000 4000" style="enable-background:new 0 0 4000 4000;" xml:space="preserve">
<style type="text/css">
	.st0{fill:#FFFFFF;}
	.st1{fill-rule:evenodd;clip-rule:evenodd;}
</style>
<g>
	<polygon class="st0" points="2689.14,3459.5 2689.14,1877.42 3120.74,1830.7 3216.5,1904.13 3216.5,3459.5 	"/>
	<polygon class="st0" points="1781.29,3459.5 1781.29,2177.82 2215.19,2104.39 2328.67,2157.79 2379.87,3499.55 	"/>
	<polygon class="st0" points="886.78,3459.5 913.48,2819.05 1427.49,2819.05 1427.49,3459.5 	"/>
	<g>
		<path class="st1" d="M3582.15,3395.95h-236.62V1914.81c0-105.19-86.63-191.82-191.82-191.82h-357.44
			c-105.19,0-191.82,86.63-191.82,191.82v1481.13h-164.47V2209.18c0-105.19-86.63-191.82-191.81-191.82h-357.44
			c-105.19,0-191.81,86.64-191.81,191.82v1186.76h-164.47v-517.73c0-105.19-86.63-191.82-191.82-191.82H985.19
			c-105.19,0-191.82,86.63-191.82,191.82v517.72h-43.3c-123.24,0-223.29-99.98-223.29-223.48V491.56
			c0-150.65-223.26-145.06-223.26,0v2680.86c0,246.89,199.91,446.93,446.55,446.93l2830.93-0.06
			C3747.68,3619.28,3721.36,3395.95,3582.15,3395.95z M1309.65,3395.94l-291.48-0.01v-484.75h291.48V3395.94z M2215.19,3395.94
			l-291.47-0.01V2242.15h291.47V3395.94z M3120.74,3395.95l-291.48-0.01V1947.79h291.48V3395.95z"/>
		<path class="st1" d="M916.65,1771.33l762.37-558.44l395.61,420.12c40.9,43.48,108.33,47.05,153.54,9.22L3231.2,891.98l89.2,115.77
			c30.85,40.02,94.7,32.47,114.37-15.4l209.25-508.03c19.82-46.69-18.47-98.74-69.99-92.03l-543.57,72.67
			c-51.15,5.29-78.02,65.33-45.83,107.04l109.88,142.6l-925.12,691.97l-393.44-417.82c-38.05-42.27-102.71-49.66-149.55-15.32
			l-842.34,617.01c-49.95,36.61-60.76,106.8-24.15,156.74C796.52,1797.12,866.7,1807.93,916.65,1771.33z"/>
	</g>
</g>
</svg>
